<svg xmlns="http://www.w3.org/2000/svg" width="1600" height="900" viewBox="0 0 1600 900" fill="none">
  <defs>
    <linearGradient id="bg" x1="0" y1="0" x2="1600" y2="900" gradientUnits="userSpaceOnUse">
      <stop stop-color="#090E17"/>
      <stop offset="1" stop-color="#1F1830"/>
    </linearGradient>
    <linearGradient id="accent" x1="210" y1="130" x2="1350" y2="780" gradientUnits="userSpaceOnUse">
      <stop stop-color="#FFB830" stop-opacity=".28"/>
      <stop offset="1" stop-color="#F15BB5" stop-opacity=".18"/>
    </linearGradient>
  </defs>
  <rect width="1600" height="900" rx="40" fill="url(#bg)"/>
  <g opacity=".24">
    <path d="M0 90H1600" stroke="#5A3B6D"/>
    <path d="M0 180H1600" stroke="#5A3B6D"/>
    <path d="M0 270H1600" stroke="#5A3B6D"/>
    <path d="M0 360H1600" stroke="#5A3B6D"/>
    <path d="M0 450H1600" stroke="#5A3B6D"/>
    <path d="M0 540H1600" stroke="#5A3B6D"/>
    <path d="M0 630H1600" stroke="#5A3B6D"/>
    <path d="M0 720H1600" stroke="#5A3B6D"/>
    <path d="M0 810H1600" stroke="#5A3B6D"/>
    <path d="M160 0V900" stroke="#5A3B6D"/>
    <path d="M320 0V900" stroke="#5A3B6D"/>
    <path d="M480 0V900" stroke="#5A3B6D"/>
    <path d="M640 0V900" stroke="#5A3B6D"/>
    <path d="M800 0V900" stroke="#5A3B6D"/>
    <path d="M960 0V900" stroke="#5A3B6D"/>
    <path d="M1120 0V900" stroke="#5A3B6D"/>
    <path d="M1280 0V900" stroke="#5A3B6D"/>
    <path d="M1440 0V900" stroke="#5A3B6D"/>
  </g>
  <rect x="88" y="88" width="1424" height="724" rx="32" fill="#0F111C" stroke="#6B477C"/>
  <rect x="88" y="88" width="1424" height="724" rx="32" fill="url(#accent)"/>
  <rect x="134" y="136" width="240" height="56" rx="10" stroke="#FFB830"/>
  <text x="160" y="172" fill="#FFB830" font-family="Courier New, monospace" font-size="28" font-weight="700" letter-spacing="6">DAY 3</text>
  <text x="134" y="292" fill="#FFF5DE" font-family="Courier New, monospace" font-size="68" font-weight="700">Injection Attacks</text>
  <text x="134" y="372" fill="#D4B7C8" font-family="Courier New, monospace" font-size="34">Demo walkthrough preview</text>
  <circle cx="800" cy="520" r="96" fill="#0A0D15" stroke="#FFB830" stroke-width="8"/>
  <path d="M770 462L868 520L770 578V462Z" fill="#FFB830"/>
  <text x="134" y="700" fill="#FFB830" font-family="Courier New, monospace" font-size="30" font-weight="700">Injection Attacks Demo Video</text>
  <text x="134" y="748" fill="#D4B7C8" font-family="Courier New, monospace" font-size="28">SQL injection lab solution walkthrough</text>
</svg>
